<svg xmlns="http://www.w3.org/2000/svg" width="24" height="25.211" viewBox="0 0 24 25.211">
    <g id="Group_3" data-name="Group 3" transform="translate(0 0)">
        <g id="Group_686" data-name="Group 686">
            <path id="Path_10209" data-name="Path 10209" d="M4.771,1.8C4.995.617,5.65-.011,6.628,0c.951.011,1.6.652,1.8,1.788h7.163A1.862,1.862,0,0,1,16.38.322a1.765,1.765,0,0,1,1.17-.316,1.843,1.843,0,0,1,1.666,1.8c.526,0,1.057-.011,1.587,0a4.414,4.414,0,0,1,.918.095,2.955,2.955,0,0,1,2.272,2.8c0,.084.005.169.005.253q0,8.553,0,17.106a2.929,2.929,0,0,1-1.8,2.887A2.987,2.987,0,0,1,21,25.2q-9,.023-18,.007A2.967,2.967,0,0,1,.011,22.277C-.009,21.508,0,20.739,0,19.97q0-7.512,0-15.024A2.957,2.957,0,0,1,2.046,1.97a3.937,3.937,0,0,1,1.047-.162c.56-.026,1.121-.007,1.678-.007M1.2,8.414v.324q0,6.639,0,13.277a1.825,1.825,0,0,0,1.987,2H20.822A1.823,1.823,0,0,0,22.8,22.038q0-6.653,0-13.305V8.414Zm0-1.232H22.8c0-.853.023-1.688-.007-2.52a1.687,1.687,0,0,0-1.412-1.6,20.671,20.671,0,0,0-2.158-.016c-.205,1.115-.822,1.731-1.769,1.752-.989.022-1.59-.544-1.884-1.776H8.42A1.832,1.832,0,0,1,6.636,4.794C5.644,4.81,4.984,4.182,4.78,3.03c-.692,0-1.387-.049-2.073.013a1.7,1.7,0,0,0-1.5,1.618c-.03.833-.007,1.667-.007,2.522M7.2,2.4c0-.187.008-.375,0-.562a.614.614,0,0,0-.61-.638A.606.606,0,0,0,6,1.825c-.013.384-.014.768,0,1.152a.6.6,0,0,0,.594.622A.607.607,0,0,0,7.2,2.962c.009-.187,0-.375,0-.562M18,2.421h0c0-.215.015-.432,0-.646a.6.6,0,0,0-.583-.575.594.594,0,0,0-.608.576c-.021.411-.02.825,0,1.236a.59.59,0,0,0,.6.586.6.6,0,0,0,.6-.588c.015-.2,0-.393,0-.59" transform="translate(0 0)" fill="#257455"/>
            <path id="Path_10210" data-name="Path 10210" d="M47.962,145.811c0-.319-.01-.638,0-.956a1.174,1.174,0,0,1,1.159-1.144q.928-.018,1.856,0a1.172,1.172,0,0,1,1.165,1.166c.014.6.011,1.2,0,1.8a1.18,1.18,0,0,1-1.191,1.231c-.6.019-1.2.018-1.8,0a1.184,1.184,0,0,1-1.2-1.226c-.006-.291,0-.581,0-.872h0m2.975-.885H49.172v1.766h1.765Z" transform="translate(-44.354 -132.903)" fill="#257455"/>
            <path id="Path_10211" data-name="Path 10211" d="M131.813,145.762c0-.319-.011-.638,0-.956a1.166,1.166,0,0,1,1.121-1.122q.969-.028,1.94,0a1.159,1.159,0,0,1,1.116,1.126c.018.618.014,1.238.005,1.856a1.176,1.176,0,0,1-1.181,1.212c-.609.021-1.219.021-1.828,0a1.179,1.179,0,0,1-1.178-1.215c-.006-.3,0-.6,0-.9h0m2.978-.87h-1.772v1.762h1.772Z" transform="translate(-121.903 -132.873)" fill="#257455"/>
            <path id="Path_10212" data-name="Path 10212" d="M219.816,145.886c0,.281.005.563,0,.844a1.18,1.18,0,0,1-1.176,1.217c-.608.022-1.219.021-1.827,0a1.177,1.177,0,0,1-1.183-1.209q-.014-.886,0-1.772a1.182,1.182,0,0,1,1.231-1.218q.858-.007,1.715,0a1.188,1.188,0,0,1,1.241,1.237c.005.3,0,.6,0,.9m-1.2-.919h-1.775v1.755h1.775Z" transform="translate(-199.419 -132.943)" fill="#257455"/>
            <path id="Path_10213" data-name="Path 10213" d="M52.1,233.578c0,.319.011.638,0,.956a1.171,1.171,0,0,1-1.143,1.13q-.942.023-1.884,0a1.168,1.168,0,0,1-1.152-1.151c-.015-.609-.012-1.219,0-1.828a1.175,1.175,0,0,1,1.175-1.217c.609-.021,1.219-.02,1.828,0a1.179,1.179,0,0,1,1.184,1.209c.007.3,0,.6,0,.9h0m-2.968.877H50.89V232.68H49.136Z" transform="translate(-44.312 -214.062)" fill="#257455"/>
            <path id="Path_10214" data-name="Path 10214" d="M135.957,233.58c0,.309.009.619,0,.928a1.176,1.176,0,0,1-1.147,1.157q-.942.023-1.884,0a1.168,1.168,0,0,1-1.15-1.152c-.015-.609-.012-1.219,0-1.828a1.175,1.175,0,0,1,1.177-1.215c.609-.02,1.219-.02,1.828,0a1.179,1.179,0,0,1,1.182,1.211c.007.3,0,.6,0,.9h0m-2.984.873h1.775v-1.759h-1.775Z" transform="translate(-121.863 -214.062)" fill="#257455"/>
            <path id="Path_10215" data-name="Path 10215" d="M215.661,233.554c0-.291-.005-.581,0-.872a1.179,1.179,0,0,1,1.18-1.213c.609-.02,1.219-.02,1.828,0a1.175,1.175,0,0,1,1.179,1.213q.014.886,0,1.772a1.184,1.184,0,0,1-1.235,1.214q-.858.007-1.715,0a1.186,1.186,0,0,1-1.236-1.214c-.007-.3,0-.6,0-.9m2.98-.861h-1.77v1.766h1.77Z" transform="translate(-199.453 -214.062)" fill="#257455"/>
        </g>
    </g>
</svg>