<svg class="selectarr" xmlns="http://www.w3.org/2000/svg" width="11" height="19" viewBox="0 0 11 19">
    <g data-name="Group 806" transform="translate(-604 -352)">
        <path class="upar1" data-name="Polygon 29" d="M4.676,1.2a1,1,0,0,1,1.648,0l3.6,5.235A1,1,0,0,1,9.1,8H1.9a1,1,0,0,1-.824-1.567Z" transform="translate(604 352)" fill="#59ae68" opacity="0.996"/>
        <path class="dwar1" data-name="Polygon 30" d="M4.676,1.2a1,1,0,0,1,1.648,0l3.6,5.235A1,1,0,0,1,9.1,8H1.9a1,1,0,0,1-.824-1.567Z" transform="translate(615 371) rotate(180)" fill="#59ae68" opacity="0.996"/>
    </g>
</svg>